# xmcd
#
# Track frame offsets: 
#        150
#        12259
#        24781
#        37320
#        49886
#        63268
#        77741
#        91223
#        101923
#        114372
#        126577
#        139777
#        152912
#        165487
#        174306
#        187518
#        199582
#        212632
#        224239
#        238222
#
# Disc length: 3326 seconds
#
# Revision: 7
# Processed by: cddbd v1.5.2PL0 Copyright (c) Steve Scherf et al.
# Submitted via: ExactAudioCopy v1.1
#
DISCID=170cfc14
DTITLE=Various Artist - CD07 (1947-48)
DYEAR=2006
DGENRE=Country
TTITLE0=Roy Acuff (1947) - Blue Eyes Crying In The Rain
TTITLE1=Cliffie Stone (1947) - Silver Stars
TTITLE2=Lone Star Playboys (1947) - Banjo Boogie
TTITLE3=Sonny Hall (1947) - Better Make Up Your Mind
TTITLE4=Billy Briggs (1947) - Xit Song
TTITLE5=Homer Clemons (1947)  - Operation Blues
TTITLE6=Al Dexter (1947) - New Broom Boogie
TTITLE7=Bob Wills (1947) - Cowboy Stomp
TTITLE8=Bill Monroe (1947) - The Race Horse Song
TTITLE9=Floyd Tillman (1947)  - I Love You So Much It Hurts
TTITLE10=Hank Penny (1948) - Big Fat Papa
TTITLE11=Curley Williams (1948) - Georgia Boogie
TTITLE12=Johnny Bond (1948)  - Mexicali Rose
TTITLE13=Johnny Bond (1948) - Ridin' Down To Santa Fe
TTITLE14=Dub Adams (1948) - Income Tax
TTITLE15=Buck Roberts (1947) - Big Beaver
TTITLE16=Red Woodward (1947) - Cowboy Boogie
TTITLE17=Hank Penny (1947) - Hillbilly Jump
TTITLE18=Harry Choates (1948) - Louisiana Boogie
TTITLE19=Johnny Tyler (1948) - Two Can Play Your Game
EXTD=
EXTT0=
EXTT1=
EXTT2=
EXTT3=
EXTT4=
EXTT5=
EXTT6=
EXTT7=
EXTT8=
EXTT9=
EXTT10=
EXTT11=
EXTT12=
EXTT13=
EXTT14=
EXTT15=
EXTT16=
EXTT17=
EXTT18=
EXTT19=
PLAYORDER=
